<?xml version="1.0" standalone="no"?><svg xmlns="http://www.w3.org/2000/svg" viewBox="0 0 1440 320"><path fill="#a2d9ff" fill-opacity="1" d="M0,192L26.7,208C53.3,224,107,256,160,229.3C213.3,203,267,117,320,112C373.3,107,427,181,480,208C533.3,235,587,213,640,181.3C693.3,149,747,107,800,101.3C853.3,96,907,128,960,165.3C1013.3,203,1067,245,1120,224C1173.3,203,1227,117,1280,80C1333.3,43,1387,53,1413,58.7L1440,64L1440,320L1413.3,320C1386.7,320,1333,320,1280,320C1226.7,320,1173,320,1120,320C1066.7,320,1013,320,960,320C906.7,320,853,320,800,320C746.7,320,693,320,640,320C586.7,320,533,320,480,320C426.7,320,373,320,320,320C266.7,320,213,320,160,320C106.7,320,53,320,27,320L0,320Z"></path></svg>